<?xml version="1.0" encoding="UTF-8" standalone="no"?>
<!-- Created with Inkscape (http://www.inkscape.org/) -->

<svg
   xmlns:dc="http://purl.org/dc/elements/1.1/"
   xmlns:cc="http://creativecommons.org/ns#"
   xmlns:rdf="http://www.w3.org/1999/02/22-rdf-syntax-ns#"
   xmlns:svg="http://www.w3.org/2000/svg"
   xmlns="http://www.w3.org/2000/svg"
   xmlns:sodipodi="http://sodipodi.sourceforge.net/DTD/sodipodi-0.dtd"
   xmlns:inkscape="http://www.inkscape.org/namespaces/inkscape"
   width="744.09448819"
   height="1052.3622047"
   id="svg2"
   version="1.1"
   inkscape:version="0.48.5 r10040"
   sodipodi:docname="flail_inkscape.svg">
  <defs
     id="defs4" />
  <sodipodi:namedview
     id="base"
     pagecolor="#ffffff"
     bordercolor="#666666"
     borderopacity="1.0"
     inkscape:pageopacity="0.0"
     inkscape:pageshadow="2"
     inkscape:zoom="0.7"
     inkscape:cx="487.05365"
     inkscape:cy="686.57572"
     inkscape:document-units="px"
     inkscape:current-layer="layer1"
     showgrid="false"
     inkscape:snap-bbox="true"
     inkscape:object-paths="true"
     inkscape:bbox-nodes="true"
     inkscape:window-width="1920"
     inkscape:window-height="1017"
     inkscape:window-x="-8"
     inkscape:window-y="-8"
     inkscape:window-maximized="1"
     showguides="true"
     inkscape:guide-bbox="true"
     inkscape:snap-global="true"
     inkscape:snap-object-midpoints="true" />
  <metadata
     id="metadata7">
    <rdf:RDF>
      <cc:Work
         rdf:about="">
        <dc:format>image/svg+xml</dc:format>
        <dc:type
           rdf:resource="http://purl.org/dc/dcmitype/StillImage" />
        <dc:title></dc:title>
      </cc:Work>
    </rdf:RDF>
  </metadata>
  <g
     inkscape:label="Layer 1"
     inkscape:groupmode="layer"
     id="layer1">
    <flowRoot
       xml:space="preserve"
       id="flowRoot2985"
       style="font-size:40px;font-style:normal;font-weight:normal;line-height:125%;letter-spacing:0px;word-spacing:0px;fill:#000000;fill-opacity:1;stroke:none;font-family:Sans"
       transform="matrix(1.8912097,0,0,2.4235858,-128.92646,-160.45274)"><flowRegion
         id="flowRegion2987"><rect
           id="rect2989"
           width="321.22852"
           height="117.1777"
           x="220.21326"
           y="68.473602" /></flowRegion><flowPara
         id="flowPara2991">Flail</flowPara><flowPara
         id="flowPara2993" /></flowRoot>    <g
       id="g4055">
      <path
         transform="matrix(1,0,0,-1,122.93523,513.06348)"
         d="m 263.57143,308.43362 a 46.07143,46.07143 0 1 1 -92.14286,0 46.07143,46.07143 0 1 1 92.14286,0 z"
         sodipodi:ry="46.07143"
         sodipodi:rx="46.07143"
         sodipodi:cy="308.43362"
         sodipodi:cx="217.5"
         id="path2995"
         style="fill:#000000;fill-opacity:1;stroke:none"
         sodipodi:type="arc" />
      <path
         inkscape:connector-curvature="0"
         id="rect3765"
         d="m 359.41514,237.45411 -18.3125,30.78125 -18.3125,-30.78125 36.625,0 z"
         style="fill:#000000;fill-opacity:1;fill-rule:nonzero;stroke:none" />
      <path
         style="fill:#000000;fill-opacity:1;fill-rule:nonzero;stroke:none"
         d="m 321.46512,171.62402 18.3125,-30.78125 18.3125,30.78125 -36.625,0 z"
         id="path3770"
         inkscape:connector-curvature="0" />
      <path
         style="fill:#000000;fill-opacity:1;fill-rule:nonzero;stroke:none"
         d="m 309.347,225.32607 -30.78125,-18.3125 30.78125,-18.3125 0,36.625 z"
         id="path3776"
         inkscape:connector-curvature="0" />
      <path
         inkscape:connector-curvature="0"
         id="path3778"
         d="m 375.17709,187.37605 30.78125,18.3125 -30.78125,18.3125 0,-36.625 z"
         style="fill:#000000;fill-opacity:1;fill-rule:nonzero;stroke:none" />
      <path
         inkscape:connector-curvature="0"
         id="path3780"
         d="m 332.07795,240.75879 -34.71452,8.81674 8.81673,-34.71453 25.89779,25.89779 z"
         style="fill:#000000;fill-opacity:1;fill-rule:nonzero;stroke:none" />
      <path
         style="fill:#000000;fill-opacity:1;fill-rule:nonzero;stroke:none"
         d="m 351.79214,167.37517 34.71452,-8.81674 -8.81673,34.71453 -25.89779,-25.89779 z"
         id="path3782"
         inkscape:connector-curvature="0" />
      <path
         style="fill:#000000;fill-opacity:1;fill-rule:nonzero;stroke:none"
         d="m 374.08116,215.94437 8.81674,34.71452 -34.71453,-8.81673 25.89779,-25.89779 z"
         id="path3784"
         inkscape:connector-curvature="0" />
      <path
         inkscape:connector-curvature="0"
         id="path3786"
         d="m 300.69754,196.23018 -8.81674,-34.71451 34.71453,8.81673 -25.89779,25.89778 z"
         style="fill:#000000;fill-opacity:1;fill-rule:nonzero;stroke:none" />
    </g>
    <path
       style="fill:#000000;fill-opacity:1;fill-rule:nonzero;stroke:none"
       d="m 171.40795,155.53251 c -4.90602,0 -8.84606,3.94004 -8.84606,8.84609 l 0,17.61808 c 0,4.90605 3.94004,8.84609 8.84606,8.84609 l 55.66729,0 c 4.90605,0 8.8831,-3.94004 8.8831,-8.84609 l 0,-17.61808 c 0,-4.90605 -3.97705,-8.84609 -8.8831,-8.84609 l -55.66729,0 z m 9.5123,5.99608 36.67973,0 c 3.23149,0 5.81102,2.6165 5.81102,5.84804 l 0,11.58502 c 0,3.23149 -2.57953,5.84799 -5.81102,5.84799 l -36.67973,0 c -3.23149,0 -5.84803,-2.6165 -5.84803,-5.84799 l 0,-11.58502 c 0,-3.23154 2.61654,-5.84804 5.84803,-5.84804 z"
       id="rect3794"
       inkscape:connector-curvature="0"
       inkscape:export-filename="C:\Users\Baserfaz\Documents\Unity Projects\flail\Assets\images\chain.png"
       inkscape:export-xdpi="90"
       inkscape:export-ydpi="90" />
    <g
       id="g3940">
      <rect
         transform="scale(-1,-1)"
         ry="30.444765"
         y="-459.48145"
         x="-164.38977"
         height="110.71429"
         width="110.71429"
         id="rect3055"
         style="fill:#000000;fill-opacity:1;fill-rule:nonzero;stroke:none" />
      <rect
         transform="scale(-1,-1)"
         style="fill:#ff8282;fill-opacity:1;fill-rule:nonzero;stroke:none"
         id="rect3851"
         width="72.833565"
         height="72.833565"
         x="-145.4494"
         y="-440.54108"
         ry="20.028135" />
      <rect
         transform="scale(-1,-1)"
         ry="13.497242"
         y="-428.66608"
         x="-133.5744"
         height="49.083565"
         width="49.083565"
         id="rect3853"
         style="fill:#000000;fill-opacity:1;fill-rule:nonzero;stroke:none" />
    </g>
    <g
       id="g3950">
      <rect
         style="fill:#000000;fill-opacity:1;fill-rule:nonzero;stroke:none"
         id="rect3857"
         width="110.71429"
         height="110.71429"
         x="-295.10406"
         y="-459.48148"
         ry="30.444765"
         transform="scale(-1,-1)" />
      <rect
         ry="20.028135"
         y="-440.54111"
         x="-276.1637"
         height="72.833565"
         width="72.833565"
         id="rect3859"
         style="fill:#82cdff;fill-opacity:1;fill-rule:nonzero;stroke:none"
         transform="scale(-1,-1)" />
      <rect
         style="fill:#000000;fill-opacity:1;fill-rule:nonzero;stroke:none"
         id="rect3861"
         width="49.083565"
         height="49.083565"
         x="-264.2887"
         y="-428.66611"
         ry="13.497242"
         transform="scale(-1,-1)" />
    </g>
    <g
       id="g3965">
      <rect
         transform="scale(-1,-1)"
         ry="30.444765"
         y="-459.48145"
         x="-425.81836"
         height="110.71429"
         width="110.71429"
         id="rect3863"
         style="fill:#000000;fill-opacity:1;fill-rule:nonzero;stroke:none" />
      <rect
         transform="scale(-1,-1)"
         style="fill:#8cff82;fill-opacity:1;fill-rule:nonzero;stroke:none"
         id="rect3865"
         width="72.833565"
         height="72.833565"
         x="-406.87799"
         y="-440.54108"
         ry="20.028135" />
      <rect
         transform="scale(-1,-1)"
         ry="13.497242"
         y="-428.66608"
         x="-395.00299"
         height="49.083565"
         width="49.083565"
         id="rect3867"
         style="fill:#000000;fill-opacity:1;fill-rule:nonzero;stroke:none" />
    </g>
    <g
       id="g3955">
      <rect
         style="fill:#000000;fill-opacity:1;fill-rule:nonzero;stroke:none"
         id="rect3869"
         width="110.71429"
         height="110.71429"
         x="-295.10406"
         y="-590.19574"
         ry="30.444765"
         transform="scale(-1,-1)" />
      <rect
         ry="20.028135"
         y="-571.25537"
         x="-276.1637"
         height="72.833565"
         width="72.833565"
         id="rect3871"
         style="fill:#feff82;fill-opacity:1;fill-rule:nonzero;stroke:none"
         transform="scale(-1,-1)" />
      <rect
         style="fill:#000000;fill-opacity:1;fill-rule:nonzero;stroke:none"
         id="rect3873"
         width="49.083565"
         height="49.083565"
         x="-264.2887"
         y="-559.38037"
         ry="13.497242"
         transform="scale(-1,-1)" />
    </g>
    <g
       id="g4073">
      <rect
         transform="scale(-1,-1)"
         ry="30.444765"
         y="-590.19574"
         x="-425.81836"
         height="110.71429"
         width="110.71429"
         id="rect3875"
         style="fill:#000000;fill-opacity:1;fill-rule:nonzero;stroke:none" />
      <rect
         transform="scale(-1,-1)"
         style="fill:#cb82ff;fill-opacity:1;fill-rule:nonzero;stroke:none"
         id="rect3877"
         width="72.833565"
         height="72.833565"
         x="-406.87799"
         y="-571.25537"
         ry="20.028135" />
      <rect
         transform="scale(-1,-1)"
         ry="13.497242"
         y="-559.38037"
         x="-395.00299"
         height="49.083565"
         width="49.083565"
         id="rect3879"
         style="fill:#000000;fill-opacity:1;fill-rule:nonzero;stroke:none" />
    </g>
    <g
       id="g3945">
      <rect
         style="fill:#000000;fill-opacity:1;fill-rule:nonzero;stroke:none"
         id="rect3881"
         width="110.71429"
         height="110.71429"
         x="-164.38977"
         y="-590.19574"
         ry="30.444765"
         transform="scale(-1,-1)" />
      <rect
         ry="20.028135"
         y="-571.25537"
         x="-145.4494"
         height="72.833565"
         width="72.833565"
         id="rect3883"
         style="fill:#ffbc82;fill-opacity:1;fill-rule:nonzero;stroke:none"
         transform="scale(-1,-1)" />
      <rect
         style="fill:#000000;fill-opacity:1;fill-rule:nonzero;stroke:none"
         id="rect3885"
         width="49.083565"
         height="49.083565"
         x="-133.5744"
         y="-559.38037"
         ry="13.497242"
         transform="scale(-1,-1)" />
    </g>
    <g
       id="g3979">
      <path
         style="fill:#000000;fill-opacity:1;fill-rule:nonzero;stroke:none"
         d="m 520.34676,403.37671 25.24999,-25.25001 -25.24999,-25.25 0,50.50001 z"
         id="path3894"
         inkscape:connector-curvature="0" />
      <g
         id="g3975">
        <path
           style="fill:#000000;fill-opacity:1;fill-rule:nonzero;stroke:none"
           d="m 512.82141,352.87671 -25.25,25.25 25.25,25.25 0,-50.5 z"
           id="rect3887"
           inkscape:connector-curvature="0" />
        <rect
           style="fill:#ff8282;fill-opacity:1;fill-rule:nonzero;stroke:none"
           id="rect3896"
           width="7.5253525"
           height="41.750023"
           x="512.82141"
           y="357.62668"
           ry="0" />
      </g>
    </g>
    <g
       id="g3970">
      <path
         style="fill:#000000;fill-opacity:1;fill-rule:nonzero;stroke:none"
         d="m 512.82141,423.37671 -25.25,25.25 25.25,25.25 0,-50.5 z"
         id="path3910"
         inkscape:connector-curvature="0" />
      <path
         inkscape:connector-curvature="0"
         id="path3912"
         d="m 520.34676,473.87671 25.24999,-25.25001 -25.24999,-25.25 0,50.50001 z"
         style="fill:#000000;fill-opacity:1;fill-rule:nonzero;stroke:none" />
      <rect
         style="fill:#ffbc82;fill-opacity:1;fill-rule:nonzero;stroke:none"
         id="rect3914"
         width="7.5253525"
         height="41.750023"
         x="512.82141"
         y="428.12668"
         ry="0" />
    </g>
    <g
       id="g3985">
      <path
         style="fill:#000000;fill-opacity:1;fill-rule:nonzero;stroke:none"
         d="m 590.84675,352.87671 -25.25,25.25 25.25,25.25 0,-50.5 z"
         id="path3916"
         inkscape:connector-curvature="0" />
      <path
         inkscape:connector-curvature="0"
         id="path3918"
         d="m 598.3721,403.37671 25.24999,-25.25001 -25.24999,-25.25 0,50.50001 z"
         style="fill:#000000;fill-opacity:1;fill-rule:nonzero;stroke:none" />
      <rect
         style="fill:#82cdff;fill-opacity:1;fill-rule:nonzero;stroke:none"
         id="rect3920"
         width="7.5253525"
         height="41.750023"
         x="590.84674"
         y="357.62668"
         ry="0" />
    </g>
    <g
       id="g3990">
      <path
         inkscape:connector-curvature="0"
         id="path3922"
         d="m 590.84675,423.37671 -25.25,25.25 25.25,25.25 0,-50.5 z"
         style="fill:#000000;fill-opacity:1;fill-rule:nonzero;stroke:none" />
      <path
         style="fill:#000000;fill-opacity:1;fill-rule:nonzero;stroke:none"
         d="m 598.3721,473.87671 25.24999,-25.25001 -25.24999,-25.25 0,50.50001 z"
         id="path3924"
         inkscape:connector-curvature="0" />
      <rect
         ry="0"
         y="428.12668"
         x="590.84674"
         height="41.750023"
         width="7.5253525"
         id="rect3926"
         style="fill:#feff82;fill-opacity:1;fill-rule:nonzero;stroke:none" />
    </g>
    <g
       id="g3995">
      <path
         inkscape:connector-curvature="0"
         id="path3928"
         d="m 668.87209,352.87671 -25.25,25.25 25.25,25.25 0,-50.5 z"
         style="fill:#000000;fill-opacity:1;fill-rule:nonzero;stroke:none" />
      <path
         style="fill:#000000;fill-opacity:1;fill-rule:nonzero;stroke:none"
         d="m 676.39744,403.37671 25.24999,-25.25001 -25.24999,-25.25 0,50.50001 z"
         id="path3930"
         inkscape:connector-curvature="0" />
      <rect
         ry="0"
         y="357.62668"
         x="668.87207"
         height="41.750023"
         width="7.5253525"
         id="rect3932"
         style="fill:#8cff82;fill-opacity:1;fill-rule:nonzero;stroke:none" />
    </g>
    <g
       id="g4000">
      <path
         style="fill:#000000;fill-opacity:1;fill-rule:nonzero;stroke:none"
         d="m 668.87209,423.37671 -25.25,25.25 25.25,25.25 0,-50.5 z"
         id="path3934"
         inkscape:connector-curvature="0" />
      <path
         inkscape:connector-curvature="0"
         id="path3936"
         d="m 676.39744,473.87671 25.24999,-25.25001 -25.24999,-25.25 0,50.50001 z"
         style="fill:#000000;fill-opacity:1;fill-rule:nonzero;stroke:none" />
      <rect
         style="fill:#cb82ff;fill-opacity:1;fill-rule:nonzero;stroke:none"
         id="rect3938"
         width="7.5253525"
         height="41.750023"
         x="668.87207"
         y="428.12668"
         ry="0" />
    </g>
    <g
       id="g4100"
       transform="translate(4.2857143,-18.571429)"
       inkscape:export-filename="C:\Users\Baserfaz\Documents\Unity Projects\flail\Assets\images\bomb.png"
       inkscape:export-xdpi="90"
       inkscape:export-ydpi="90">
      <rect
         style="fill:#000000;fill-opacity:1;fill-rule:nonzero;stroke:none"
         id="rect4029"
         width="110.71429"
         height="110.71429"
         x="-629.88617"
         y="-666.25409"
         ry="30.444765"
         transform="scale(-1,-1)" />
      <rect
         ry="20.028135"
         y="-647.31372"
         x="-610.9458"
         height="72.833565"
         width="72.833565"
         id="rect4031"
         style="fill:#ff001c;fill-opacity:1;fill-rule:nonzero;stroke:none"
         transform="scale(-1,-1)" />
      <path
         style="fill:#000000;fill-opacity:1;fill-rule:nonzero;stroke:none"
         d="m 611.36224,647.31372 -18.3125,30.78125 -18.3125,-30.78125 36.625,0 z"
         id="path4053"
         inkscape:connector-curvature="0" />
      <path
         inkscape:connector-curvature="0"
         id="path4066"
         d="m 574.73724,647.31372 -18.3125,30.78125 -18.3125,-30.78125 36.625,0 z"
         style="fill:#000000;fill-opacity:1;fill-rule:nonzero;stroke:none" />
      <rect
         style="fill:#000000;fill-opacity:1;fill-rule:nonzero;stroke:none"
         id="rect4071"
         width="49.083565"
         height="49.083565"
         x="-599.0708"
         y="-635.43872"
         ry="13.497242"
         transform="scale(-1,-1)" />
      <path
         inkscape:connector-curvature="0"
         id="path4078"
         d="m 537.21238,570.93043 18.3125,-30.78125 18.3125,30.78125 -36.625,0 z"
         style="fill:#000000;fill-opacity:1;fill-rule:nonzero;stroke:none" />
      <path
         style="fill:#000000;fill-opacity:1;fill-rule:nonzero;stroke:none"
         d="m 573.83738,570.93043 18.3125,-30.78125 18.3125,30.78125 -36.625,0 z"
         id="path4080"
         inkscape:connector-curvature="0" />
      <path
         inkscape:connector-curvature="0"
         id="path4082"
         d="m 611.36224,574.06372 30.78125,18.3125 -30.78125,18.3125 0,-36.625 z"
         style="fill:#000000;fill-opacity:1;fill-rule:nonzero;stroke:none" />
      <path
         style="fill:#000000;fill-opacity:1;fill-rule:nonzero;stroke:none"
         d="m 611.36224,610.68872 30.78125,18.3125 -30.78125,18.3125 0,-36.625 z"
         id="path4084"
         inkscape:connector-curvature="0" />
      <path
         style="fill:#000000;fill-opacity:1;fill-rule:nonzero;stroke:none"
         d="m 538.11224,647.31372 -30.78125,-18.3125 30.78125,-18.3125 0,36.625 z"
         id="path4086"
         inkscape:connector-curvature="0" />
      <path
         inkscape:connector-curvature="0"
         id="path4088"
         d="m 538.11224,610.68872 -30.78125,-18.3125 30.78125,-18.3125 0,36.625 z"
         style="fill:#000000;fill-opacity:1;fill-rule:nonzero;stroke:none" />
      <path
         style="fill:#000000;fill-opacity:1;fill-rule:nonzero;stroke:none"
         d="m 527.98862,590.25433 -8.81674,-34.71453 34.71452,8.81674 -25.89778,25.89779 z"
         id="path4090"
         inkscape:connector-curvature="0" />
      <path
         inkscape:connector-curvature="0"
         id="path4092"
         d="m 621.06943,631.53956 8.81674,34.71453 -34.71452,-8.81674 25.89778,-25.89779 z"
         style="fill:#000000;fill-opacity:1;fill-rule:nonzero;stroke:none" />
      <path
         style="fill:#000000;fill-opacity:1;fill-rule:nonzero;stroke:none"
         d="m 595.17164,564.35654 34.71453,-8.81674 -8.81674,34.71452 -25.89779,-25.89778 z"
         id="path4094"
         inkscape:connector-curvature="0" />
      <path
         inkscape:connector-curvature="0"
         id="path4096"
         d="m 553.88641,657.43735 -34.71453,8.81674 8.81674,-34.71452 25.89779,25.89778 z"
         style="fill:#000000;fill-opacity:1;fill-rule:nonzero;stroke:none" />
      <rect
         transform="scale(-1,-1)"
         ry="6.5448093"
         y="-622.79724"
         x="-586.42932"
         height="23.800608"
         width="23.800608"
         id="rect4098"
         style="fill:#ff0000;fill-opacity:1;fill-rule:nonzero;stroke:none" />
    </g>
  </g>
</svg>
